<mxfile host="app.diagrams.net" modified="2023-07-18T10:45:18.151Z" agent="Mozilla/5.0 (Windows NT 10.0; Win64; x64) AppleWebKit/537.36 (KHTML, like Gecko) Chrome/114.0.0.0 Safari/537.36" etag="IxJ_1CG8OWTtBckIlo0y" version="21.6.2" type="github" pages="5">
  <diagram id="C5RBs43oDa-KdzZeNtuy" name="diagrame de class">
    <mxGraphModel dx="1290" dy="573" grid="1" gridSize="10" guides="1" tooltips="1" connect="1" arrows="1" fold="1" page="1" pageScale="1" pageWidth="827" pageHeight="1169" math="0" shadow="0">
      <root>
        <mxCell id="WIyWlLk6GJQsqaUBKTNV-0" />
        <mxCell id="WIyWlLk6GJQsqaUBKTNV-1" parent="WIyWlLk6GJQsqaUBKTNV-0" />
        <mxCell id="zkfFHV4jXpPFQw0GAbJ--0" value="Apk" style="swimlane;fontStyle=2;align=center;verticalAlign=top;childLayout=stackLayout;horizontal=1;startSize=26;horizontalStack=0;resizeParent=1;resizeLast=0;collapsible=1;marginBottom=0;rounded=0;shadow=0;strokeWidth=1;" parent="WIyWlLk6GJQsqaUBKTNV-1" vertex="1">
          <mxGeometry x="40" y="40" width="120" height="364" as="geometry">
            <mxRectangle x="230" y="140" width="160" height="26" as="alternateBounds" />
          </mxGeometry>
        </mxCell>
        <mxCell id="zkfFHV4jXpPFQw0GAbJ--1" value="title" style="text;align=left;verticalAlign=top;spacingLeft=4;spacingRight=4;overflow=hidden;rotatable=0;points=[[0,0.5],[1,0.5]];portConstraint=eastwest;" parent="zkfFHV4jXpPFQw0GAbJ--0" vertex="1">
          <mxGeometry y="26" width="120" height="26" as="geometry" />
        </mxCell>
        <mxCell id="a1Oi_Ky5pciejbNv0Awz-40" value="description" style="text;align=left;verticalAlign=top;spacingLeft=4;spacingRight=4;overflow=hidden;rotatable=0;points=[[0,0.5],[1,0.5]];portConstraint=eastwest;" parent="zkfFHV4jXpPFQw0GAbJ--0" vertex="1">
          <mxGeometry y="52" width="120" height="26" as="geometry" />
        </mxCell>
        <mxCell id="a1Oi_Ky5pciejbNv0Awz-41" value="descriptionHTML" style="text;align=left;verticalAlign=top;spacingLeft=4;spacingRight=4;overflow=hidden;rotatable=0;points=[[0,0.5],[1,0.5]];portConstraint=eastwest;" parent="zkfFHV4jXpPFQw0GAbJ--0" vertex="1">
          <mxGeometry y="78" width="120" height="26" as="geometry" />
        </mxCell>
        <mxCell id="a1Oi_Ky5pciejbNv0Awz-2" value="icon" style="text;align=left;verticalAlign=top;spacingLeft=4;spacingRight=4;overflow=hidden;rotatable=0;points=[[0,0.5],[1,0.5]];portConstraint=eastwest;rounded=0;shadow=0;html=0;" parent="zkfFHV4jXpPFQw0GAbJ--0" vertex="1">
          <mxGeometry y="104" width="120" height="26" as="geometry" />
        </mxCell>
        <mxCell id="zkfFHV4jXpPFQw0GAbJ--3" value="ShortDescription" style="text;align=left;verticalAlign=top;spacingLeft=4;spacingRight=4;overflow=hidden;rotatable=0;points=[[0,0.5],[1,0.5]];portConstraint=eastwest;rounded=0;shadow=0;html=0;" parent="zkfFHV4jXpPFQw0GAbJ--0" vertex="1">
          <mxGeometry y="130" width="120" height="26" as="geometry" />
        </mxCell>
        <mxCell id="zkfFHV4jXpPFQw0GAbJ--5" value="LongDescription" style="text;align=left;verticalAlign=top;spacingLeft=4;spacingRight=4;overflow=hidden;rotatable=0;points=[[0,0.5],[1,0.5]];portConstraint=eastwest;" parent="zkfFHV4jXpPFQw0GAbJ--0" vertex="1">
          <mxGeometry y="156" width="120" height="26" as="geometry" />
        </mxCell>
        <mxCell id="a1Oi_Ky5pciejbNv0Awz-38" value="screenshots" style="text;align=left;verticalAlign=top;spacingLeft=4;spacingRight=4;overflow=hidden;rotatable=0;points=[[0,0.5],[1,0.5]];portConstraint=eastwest;rounded=0;shadow=0;html=0;" parent="zkfFHV4jXpPFQw0GAbJ--0" vertex="1">
          <mxGeometry y="182" width="120" height="26" as="geometry" />
        </mxCell>
        <mxCell id="a1Oi_Ky5pciejbNv0Awz-42" value="ratings" style="text;align=left;verticalAlign=top;spacingLeft=4;spacingRight=4;overflow=hidden;rotatable=0;points=[[0,0.5],[1,0.5]];portConstraint=eastwest;rounded=0;shadow=0;html=0;" parent="zkfFHV4jXpPFQw0GAbJ--0" vertex="1">
          <mxGeometry y="208" width="120" height="26" as="geometry" />
        </mxCell>
        <mxCell id="a1Oi_Ky5pciejbNv0Awz-43" value="reviews" style="text;align=left;verticalAlign=top;spacingLeft=4;spacingRight=4;overflow=hidden;rotatable=0;points=[[0,0.5],[1,0.5]];portConstraint=eastwest;rounded=0;shadow=0;html=0;" parent="zkfFHV4jXpPFQw0GAbJ--0" vertex="1">
          <mxGeometry y="234" width="120" height="26" as="geometry" />
        </mxCell>
        <mxCell id="a1Oi_Ky5pciejbNv0Awz-39" value="size" style="text;align=left;verticalAlign=top;spacingLeft=4;spacingRight=4;overflow=hidden;rotatable=0;points=[[0,0.5],[1,0.5]];portConstraint=eastwest;rounded=0;shadow=0;html=0;" parent="zkfFHV4jXpPFQw0GAbJ--0" vertex="1">
          <mxGeometry y="260" width="120" height="26" as="geometry" />
        </mxCell>
        <mxCell id="a1Oi_Ky5pciejbNv0Awz-44" value="installs" style="text;align=left;verticalAlign=top;spacingLeft=4;spacingRight=4;overflow=hidden;rotatable=0;points=[[0,0.5],[1,0.5]];portConstraint=eastwest;rounded=0;shadow=0;html=0;" parent="zkfFHV4jXpPFQw0GAbJ--0" vertex="1">
          <mxGeometry y="286" width="120" height="26" as="geometry" />
        </mxCell>
        <mxCell id="a1Oi_Ky5pciejbNv0Awz-45" value="developer" style="text;align=left;verticalAlign=top;spacingLeft=4;spacingRight=4;overflow=hidden;rotatable=0;points=[[0,0.5],[1,0.5]];portConstraint=eastwest;rounded=0;shadow=0;html=0;" parent="zkfFHV4jXpPFQw0GAbJ--0" vertex="1">
          <mxGeometry y="312" width="120" height="26" as="geometry" />
        </mxCell>
        <mxCell id="XHYxRueolxexjnhZCUnx-1" value="categorie" style="text;align=left;verticalAlign=top;spacingLeft=4;spacingRight=4;overflow=hidden;rotatable=0;points=[[0,0.5],[1,0.5]];portConstraint=eastwest;rounded=0;shadow=0;html=0;" parent="zkfFHV4jXpPFQw0GAbJ--0" vertex="1">
          <mxGeometry y="338" width="120" height="26" as="geometry" />
        </mxCell>
        <mxCell id="zkfFHV4jXpPFQw0GAbJ--6" value="Game" style="swimlane;fontStyle=0;align=center;verticalAlign=top;childLayout=stackLayout;horizontal=1;startSize=26;horizontalStack=0;resizeParent=1;resizeLast=0;collapsible=1;marginBottom=0;rounded=0;shadow=0;strokeWidth=1;" parent="WIyWlLk6GJQsqaUBKTNV-1" vertex="1">
          <mxGeometry x="90" y="500" width="160" height="60" as="geometry">
            <mxRectangle x="130" y="380" width="160" height="26" as="alternateBounds" />
          </mxGeometry>
        </mxCell>
        <mxCell id="pOyd4cFtWFPGemgZgTzs-2" value="+subgategorie" style="text;html=1;align=center;verticalAlign=middle;resizable=0;points=[];autosize=1;strokeColor=none;fillColor=none;" parent="zkfFHV4jXpPFQw0GAbJ--6" vertex="1">
          <mxGeometry y="26" width="160" height="30" as="geometry" />
        </mxCell>
        <mxCell id="zkfFHV4jXpPFQw0GAbJ--12" value="" style="endArrow=block;endSize=10;endFill=0;shadow=0;strokeWidth=1;rounded=0;edgeStyle=elbowEdgeStyle;elbow=vertical;" parent="WIyWlLk6GJQsqaUBKTNV-1" source="zkfFHV4jXpPFQw0GAbJ--6" target="zkfFHV4jXpPFQw0GAbJ--0" edge="1">
          <mxGeometry width="160" relative="1" as="geometry">
            <mxPoint x="200" y="203" as="sourcePoint" />
            <mxPoint x="200" y="203" as="targetPoint" />
          </mxGeometry>
        </mxCell>
        <mxCell id="zkfFHV4jXpPFQw0GAbJ--13" value="Apps" style="swimlane;fontStyle=0;align=center;verticalAlign=top;childLayout=stackLayout;horizontal=1;startSize=26;horizontalStack=0;resizeParent=1;resizeLast=0;collapsible=1;marginBottom=0;rounded=0;shadow=0;strokeWidth=1;" parent="WIyWlLk6GJQsqaUBKTNV-1" vertex="1">
          <mxGeometry x="460" y="496" width="160" height="60" as="geometry">
            <mxRectangle x="340" y="380" width="170" height="26" as="alternateBounds" />
          </mxGeometry>
        </mxCell>
        <mxCell id="pOyd4cFtWFPGemgZgTzs-1" value="+subgategorie" style="text;html=1;align=center;verticalAlign=middle;resizable=0;points=[];autosize=1;strokeColor=none;fillColor=none;" parent="zkfFHV4jXpPFQw0GAbJ--13" vertex="1">
          <mxGeometry y="26" width="160" height="30" as="geometry" />
        </mxCell>
        <mxCell id="zkfFHV4jXpPFQw0GAbJ--16" value="" style="endArrow=block;endSize=10;endFill=0;shadow=0;strokeWidth=1;rounded=0;edgeStyle=elbowEdgeStyle;elbow=vertical;" parent="WIyWlLk6GJQsqaUBKTNV-1" source="zkfFHV4jXpPFQw0GAbJ--13" target="zkfFHV4jXpPFQw0GAbJ--0" edge="1">
          <mxGeometry width="160" relative="1" as="geometry">
            <mxPoint x="210" y="373" as="sourcePoint" />
            <mxPoint x="310" y="271" as="targetPoint" />
          </mxGeometry>
        </mxCell>
        <mxCell id="zkfFHV4jXpPFQw0GAbJ--17" value="Article" style="swimlane;fontStyle=0;align=center;verticalAlign=top;childLayout=stackLayout;horizontal=1;startSize=26;horizontalStack=0;resizeParent=1;resizeLast=0;collapsible=1;marginBottom=0;rounded=0;shadow=0;strokeWidth=1;" parent="WIyWlLk6GJQsqaUBKTNV-1" vertex="1">
          <mxGeometry x="650" y="280" width="160" height="216" as="geometry">
            <mxRectangle x="570" y="100" width="160" height="26" as="alternateBounds" />
          </mxGeometry>
        </mxCell>
        <mxCell id="zkfFHV4jXpPFQw0GAbJ--18" value="title" style="text;align=left;verticalAlign=top;spacingLeft=4;spacingRight=4;overflow=hidden;rotatable=0;points=[[0,0.5],[1,0.5]];portConstraint=eastwest;" parent="zkfFHV4jXpPFQw0GAbJ--17" vertex="1">
          <mxGeometry y="26" width="160" height="26" as="geometry" />
        </mxCell>
        <mxCell id="zkfFHV4jXpPFQw0GAbJ--19" value="shortdescription" style="text;align=left;verticalAlign=top;spacingLeft=4;spacingRight=4;overflow=hidden;rotatable=0;points=[[0,0.5],[1,0.5]];portConstraint=eastwest;rounded=0;shadow=0;html=0;" parent="zkfFHV4jXpPFQw0GAbJ--17" vertex="1">
          <mxGeometry y="52" width="160" height="26" as="geometry" />
        </mxCell>
        <mxCell id="zkfFHV4jXpPFQw0GAbJ--20" value="description" style="text;align=left;verticalAlign=top;spacingLeft=4;spacingRight=4;overflow=hidden;rotatable=0;points=[[0,0.5],[1,0.5]];portConstraint=eastwest;rounded=0;shadow=0;html=0;" parent="zkfFHV4jXpPFQw0GAbJ--17" vertex="1">
          <mxGeometry y="78" width="160" height="26" as="geometry" />
        </mxCell>
        <mxCell id="zkfFHV4jXpPFQw0GAbJ--21" value="images" style="text;align=left;verticalAlign=top;spacingLeft=4;spacingRight=4;overflow=hidden;rotatable=0;points=[[0,0.5],[1,0.5]];portConstraint=eastwest;rounded=0;shadow=0;html=0;" parent="zkfFHV4jXpPFQw0GAbJ--17" vertex="1">
          <mxGeometry y="104" width="160" height="26" as="geometry" />
        </mxCell>
        <mxCell id="zkfFHV4jXpPFQw0GAbJ--22" value="thumdnail" style="text;align=left;verticalAlign=top;spacingLeft=4;spacingRight=4;overflow=hidden;rotatable=0;points=[[0,0.5],[1,0.5]];portConstraint=eastwest;rounded=0;shadow=0;html=0;" parent="zkfFHV4jXpPFQw0GAbJ--17" vertex="1">
          <mxGeometry y="130" width="160" height="26" as="geometry" />
        </mxCell>
        <mxCell id="zkfFHV4jXpPFQw0GAbJ--23" value="" style="line;html=1;strokeWidth=1;align=left;verticalAlign=middle;spacingTop=-1;spacingLeft=3;spacingRight=3;rotatable=0;labelPosition=right;points=[];portConstraint=eastwest;" parent="zkfFHV4jXpPFQw0GAbJ--17" vertex="1">
          <mxGeometry y="156" width="160" height="8" as="geometry" />
        </mxCell>
        <mxCell id="_H7iqelX0kw2jRbqX-JL-0" value="Owner" style="swimlane;fontStyle=0;align=center;verticalAlign=top;childLayout=stackLayout;horizontal=1;startSize=26;horizontalStack=0;resizeParent=1;resizeLast=0;collapsible=1;marginBottom=0;rounded=0;shadow=0;strokeWidth=1;" parent="WIyWlLk6GJQsqaUBKTNV-1" vertex="1">
          <mxGeometry x="220" y="64" width="160" height="216" as="geometry">
            <mxRectangle x="570" y="100" width="160" height="26" as="alternateBounds" />
          </mxGeometry>
        </mxCell>
        <mxCell id="_H7iqelX0kw2jRbqX-JL-1" value="email" style="text;align=left;verticalAlign=top;spacingLeft=4;spacingRight=4;overflow=hidden;rotatable=0;points=[[0,0.5],[1,0.5]];portConstraint=eastwest;" parent="_H7iqelX0kw2jRbqX-JL-0" vertex="1">
          <mxGeometry y="26" width="160" height="26" as="geometry" />
        </mxCell>
        <mxCell id="_H7iqelX0kw2jRbqX-JL-2" value="lien compte play store" style="text;align=left;verticalAlign=top;spacingLeft=4;spacingRight=4;overflow=hidden;rotatable=0;points=[[0,0.5],[1,0.5]];portConstraint=eastwest;rounded=0;shadow=0;html=0;" parent="_H7iqelX0kw2jRbqX-JL-0" vertex="1">
          <mxGeometry y="52" width="160" height="26" as="geometry" />
        </mxCell>
        <mxCell id="_H7iqelX0kw2jRbqX-JL-6" value="" style="line;html=1;strokeWidth=1;align=left;verticalAlign=middle;spacingTop=-1;spacingLeft=3;spacingRight=3;rotatable=0;labelPosition=right;points=[];portConstraint=eastwest;" parent="_H7iqelX0kw2jRbqX-JL-0" vertex="1">
          <mxGeometry y="78" width="160" height="8" as="geometry" />
        </mxCell>
        <mxCell id="_H7iqelX0kw2jRbqX-JL-7" value="" style="endArrow=none;html=1;rounded=0;" parent="WIyWlLk6GJQsqaUBKTNV-1" target="zkfFHV4jXpPFQw0GAbJ--0" edge="1">
          <mxGeometry width="50" height="50" relative="1" as="geometry">
            <mxPoint x="220" y="222" as="sourcePoint" />
            <mxPoint x="530" y="300" as="targetPoint" />
          </mxGeometry>
        </mxCell>
        <mxCell id="_H7iqelX0kw2jRbqX-JL-8" value="Admin" style="swimlane;fontStyle=0;align=center;verticalAlign=top;childLayout=stackLayout;horizontal=1;startSize=26;horizontalStack=0;resizeParent=1;resizeLast=0;collapsible=1;marginBottom=0;rounded=0;shadow=0;strokeWidth=1;" parent="WIyWlLk6GJQsqaUBKTNV-1" vertex="1">
          <mxGeometry x="470" y="30" width="160" height="216" as="geometry">
            <mxRectangle x="570" y="100" width="160" height="26" as="alternateBounds" />
          </mxGeometry>
        </mxCell>
        <mxCell id="_H7iqelX0kw2jRbqX-JL-9" value="email" style="text;align=left;verticalAlign=top;spacingLeft=4;spacingRight=4;overflow=hidden;rotatable=0;points=[[0,0.5],[1,0.5]];portConstraint=eastwest;" parent="_H7iqelX0kw2jRbqX-JL-8" vertex="1">
          <mxGeometry y="26" width="160" height="26" as="geometry" />
        </mxCell>
        <mxCell id="_H7iqelX0kw2jRbqX-JL-10" value="password" style="text;align=left;verticalAlign=top;spacingLeft=4;spacingRight=4;overflow=hidden;rotatable=0;points=[[0,0.5],[1,0.5]];portConstraint=eastwest;rounded=0;shadow=0;html=0;" parent="_H7iqelX0kw2jRbqX-JL-8" vertex="1">
          <mxGeometry y="52" width="160" height="26" as="geometry" />
        </mxCell>
        <mxCell id="_H7iqelX0kw2jRbqX-JL-14" value="" style="line;html=1;strokeWidth=1;align=left;verticalAlign=middle;spacingTop=-1;spacingLeft=3;spacingRight=3;rotatable=0;labelPosition=right;points=[];portConstraint=eastwest;" parent="_H7iqelX0kw2jRbqX-JL-8" vertex="1">
          <mxGeometry y="78" width="160" height="8" as="geometry" />
        </mxCell>
        <mxCell id="_H7iqelX0kw2jRbqX-JL-21" value="" style="endArrow=none;html=1;rounded=0;exitX=1;exitY=0.5;exitDx=0;exitDy=0;" parent="WIyWlLk6GJQsqaUBKTNV-1" source="_H7iqelX0kw2jRbqX-JL-0" edge="1">
          <mxGeometry width="50" height="50" relative="1" as="geometry">
            <mxPoint x="370" y="170" as="sourcePoint" />
            <mxPoint x="470" y="172" as="targetPoint" />
          </mxGeometry>
        </mxCell>
        <mxCell id="_H7iqelX0kw2jRbqX-JL-31" value="" style="shape=partialRectangle;whiteSpace=wrap;html=1;bottom=0;right=0;fillColor=none;rotation=-90;" parent="WIyWlLk6GJQsqaUBKTNV-1" vertex="1">
          <mxGeometry x="552" y="269" width="120" height="74" as="geometry" />
        </mxCell>
        <mxCell id="_H7iqelX0kw2jRbqX-JL-34" value="*" style="text;strokeColor=none;align=center;fillColor=none;html=1;verticalAlign=middle;whiteSpace=wrap;rounded=0;" parent="WIyWlLk6GJQsqaUBKTNV-1" vertex="1">
          <mxGeometry x="140" y="200" width="60" height="30" as="geometry" />
        </mxCell>
        <mxCell id="_H7iqelX0kw2jRbqX-JL-35" value="1" style="text;strokeColor=none;align=center;fillColor=none;html=1;verticalAlign=middle;whiteSpace=wrap;rounded=0;" parent="WIyWlLk6GJQsqaUBKTNV-1" vertex="1">
          <mxGeometry x="180" y="200" width="60" height="30" as="geometry" />
        </mxCell>
        <mxCell id="_H7iqelX0kw2jRbqX-JL-36" value="*" style="text;strokeColor=none;align=center;fillColor=none;html=1;verticalAlign=middle;whiteSpace=wrap;rounded=0;" parent="WIyWlLk6GJQsqaUBKTNV-1" vertex="1">
          <mxGeometry x="354" y="150" width="60" height="30" as="geometry" />
        </mxCell>
        <mxCell id="_H7iqelX0kw2jRbqX-JL-37" value="1" style="text;strokeColor=none;align=center;fillColor=none;html=1;verticalAlign=middle;whiteSpace=wrap;rounded=0;" parent="WIyWlLk6GJQsqaUBKTNV-1" vertex="1">
          <mxGeometry x="430" y="150" width="60" height="30" as="geometry" />
        </mxCell>
        <mxCell id="_H7iqelX0kw2jRbqX-JL-38" value="*" style="text;strokeColor=none;align=center;fillColor=none;html=1;verticalAlign=middle;whiteSpace=wrap;rounded=0;" parent="WIyWlLk6GJQsqaUBKTNV-1" vertex="1">
          <mxGeometry x="600" y="343" width="60" height="30" as="geometry" />
        </mxCell>
        <mxCell id="_H7iqelX0kw2jRbqX-JL-39" value="1" style="text;strokeColor=none;align=center;fillColor=none;html=1;verticalAlign=middle;whiteSpace=wrap;rounded=0;" parent="WIyWlLk6GJQsqaUBKTNV-1" vertex="1">
          <mxGeometry x="540" y="246" width="60" height="30" as="geometry" />
        </mxCell>
      </root>
    </mxGraphModel>
  </diagram>
  <diagram id="9x3FUVSs3cE9I3kzrcLE" name="use case">
    <mxGraphModel dx="1843" dy="819" grid="1" gridSize="10" guides="1" tooltips="1" connect="1" arrows="1" fold="1" page="1" pageScale="1" pageWidth="827" pageHeight="1169" math="0" shadow="0">
      <root>
        <mxCell id="0" />
        <mxCell id="1" parent="0" />
        <mxCell id="oyxYC7p3GmtmiMxruvlk-2" value="Admin" style="shape=umlActor;verticalLabelPosition=bottom;verticalAlign=top;html=1;outlineConnect=0;" parent="1" vertex="1">
          <mxGeometry x="260" y="630" width="30" height="60" as="geometry" />
        </mxCell>
        <mxCell id="oyxYC7p3GmtmiMxruvlk-3" value="Consulter les Applications" style="ellipse;whiteSpace=wrap;html=1;" parent="1" vertex="1">
          <mxGeometry x="460" y="800" width="240" height="60" as="geometry" />
        </mxCell>
        <mxCell id="oyxYC7p3GmtmiMxruvlk-4" value="Gerer Les Application" style="ellipse;whiteSpace=wrap;html=1;" parent="1" vertex="1">
          <mxGeometry x="490" y="680" width="240" height="60" as="geometry" />
        </mxCell>
        <mxCell id="oyxYC7p3GmtmiMxruvlk-7" value="" style="endArrow=none;html=1;rounded=0;exitX=0.5;exitY=0.5;exitDx=0;exitDy=0;exitPerimeter=0;entryX=0.02;entryY=0.687;entryDx=0;entryDy=0;entryPerimeter=0;" parent="1" source="oyxYC7p3GmtmiMxruvlk-1" target="oyxYC7p3GmtmiMxruvlk-3" edge="1">
          <mxGeometry width="50" height="50" relative="1" as="geometry">
            <mxPoint x="520" y="600" as="sourcePoint" />
            <mxPoint x="570" y="550" as="targetPoint" />
          </mxGeometry>
        </mxCell>
        <mxCell id="oyxYC7p3GmtmiMxruvlk-8" value="" style="endArrow=none;html=1;rounded=0;exitX=0.5;exitY=0.5;exitDx=0;exitDy=0;exitPerimeter=0;entryX=0.028;entryY=0.36;entryDx=0;entryDy=0;entryPerimeter=0;" parent="1" source="oyxYC7p3GmtmiMxruvlk-2" target="oyxYC7p3GmtmiMxruvlk-4" edge="1">
          <mxGeometry width="50" height="50" relative="1" as="geometry">
            <mxPoint x="520" y="830" as="sourcePoint" />
            <mxPoint x="570" y="780" as="targetPoint" />
          </mxGeometry>
        </mxCell>
        <mxCell id="oyxYC7p3GmtmiMxruvlk-14" value="Telecharger les Applications" style="ellipse;whiteSpace=wrap;html=1;" parent="1" vertex="1">
          <mxGeometry x="450" y="890" width="240" height="60" as="geometry" />
        </mxCell>
        <mxCell id="oyxYC7p3GmtmiMxruvlk-15" value="" style="endArrow=none;html=1;rounded=0;exitX=0.5;exitY=0.5;exitDx=0;exitDy=0;exitPerimeter=0;entryX=0;entryY=0.5;entryDx=0;entryDy=0;" parent="1" source="oyxYC7p3GmtmiMxruvlk-1" target="oyxYC7p3GmtmiMxruvlk-14" edge="1">
          <mxGeometry width="50" height="50" relative="1" as="geometry">
            <mxPoint x="285" y="410" as="sourcePoint" />
            <mxPoint x="420" y="440" as="targetPoint" />
          </mxGeometry>
        </mxCell>
        <mxCell id="oyxYC7p3GmtmiMxruvlk-21" value="Gerer Les Articles" style="ellipse;whiteSpace=wrap;html=1;" parent="1" vertex="1">
          <mxGeometry x="480" y="530" width="240" height="60" as="geometry" />
        </mxCell>
        <mxCell id="oyxYC7p3GmtmiMxruvlk-22" value="" style="endArrow=none;html=1;rounded=0;exitX=0.5;exitY=0.5;exitDx=0;exitDy=0;exitPerimeter=0;entryX=0;entryY=0.5;entryDx=0;entryDy=0;" parent="1" source="oyxYC7p3GmtmiMxruvlk-2" target="oyxYC7p3GmtmiMxruvlk-21" edge="1">
          <mxGeometry width="50" height="50" relative="1" as="geometry">
            <mxPoint x="275" y="740" as="sourcePoint" />
            <mxPoint x="430" y="740" as="targetPoint" />
          </mxGeometry>
        </mxCell>
        <mxCell id="oyxYC7p3GmtmiMxruvlk-27" value="Extends" style="endArrow=block;endSize=16;endFill=0;html=1;rounded=0;entryX=0.5;entryY=0;entryDx=0;entryDy=0;entryPerimeter=0;" parent="1" source="oyxYC7p3GmtmiMxruvlk-2" target="oyxYC7p3GmtmiMxruvlk-1" edge="1">
          <mxGeometry width="160" relative="1" as="geometry">
            <mxPoint x="240" y="870" as="sourcePoint" />
            <mxPoint x="240" y="680" as="targetPoint" />
          </mxGeometry>
        </mxCell>
        <mxCell id="18bco8BzDq-YY5OEev9_-1" value="&lt;font style=&quot;font-size: 12px;&quot;&gt;Consulter les articles&lt;/font&gt;" style="ellipse;whiteSpace=wrap;html=1;fontSize=16;" parent="1" vertex="1">
          <mxGeometry x="450" y="980" width="240" height="50" as="geometry" />
        </mxCell>
        <mxCell id="18bco8BzDq-YY5OEev9_-2" value="" style="endArrow=none;html=1;rounded=0;fontSize=12;startSize=8;endSize=8;curved=1;exitX=0.5;exitY=0.5;exitDx=0;exitDy=0;exitPerimeter=0;entryX=0.032;entryY=0.344;entryDx=0;entryDy=0;entryPerimeter=0;" parent="1" source="oyxYC7p3GmtmiMxruvlk-1" target="18bco8BzDq-YY5OEev9_-1" edge="1">
          <mxGeometry width="50" height="50" relative="1" as="geometry">
            <mxPoint x="660" y="520" as="sourcePoint" />
            <mxPoint x="710" y="470" as="targetPoint" />
          </mxGeometry>
        </mxCell>
        <mxCell id="jN1XXJQR6XUfSajiJQBv-1" value="owner application" style="shape=umlActor;verticalLabelPosition=bottom;verticalAlign=top;html=1;outlineConnect=0;" parent="1" vertex="1">
          <mxGeometry x="260" y="350" width="30" height="60" as="geometry" />
        </mxCell>
        <mxCell id="jN1XXJQR6XUfSajiJQBv-2" value="Espace d&#39;application" style="ellipse;whiteSpace=wrap;html=1;" parent="1" vertex="1">
          <mxGeometry x="490" y="350" width="240" height="60" as="geometry" />
        </mxCell>
        <mxCell id="jN1XXJQR6XUfSajiJQBv-3" value="Authentification" style="ellipse;whiteSpace=wrap;html=1;" parent="1" vertex="1">
          <mxGeometry x="890" y="350" width="240" height="60" as="geometry" />
        </mxCell>
        <mxCell id="jN1XXJQR6XUfSajiJQBv-4" value="Extends" style="endArrow=block;endSize=16;endFill=0;html=1;rounded=0;" parent="1" source="oyxYC7p3GmtmiMxruvlk-2" edge="1">
          <mxGeometry width="160" relative="1" as="geometry">
            <mxPoint x="310" y="1000" as="sourcePoint" />
            <mxPoint x="275" y="430" as="targetPoint" />
          </mxGeometry>
        </mxCell>
        <mxCell id="jN1XXJQR6XUfSajiJQBv-6" value="" style="endArrow=none;html=1;rounded=0;exitX=0.5;exitY=0.5;exitDx=0;exitDy=0;exitPerimeter=0;entryX=0;entryY=0.5;entryDx=0;entryDy=0;" parent="1" source="jN1XXJQR6XUfSajiJQBv-1" target="jN1XXJQR6XUfSajiJQBv-2" edge="1">
          <mxGeometry width="50" height="50" relative="1" as="geometry">
            <mxPoint x="290" y="870" as="sourcePoint" />
            <mxPoint x="452" y="932" as="targetPoint" />
          </mxGeometry>
        </mxCell>
        <mxCell id="jN1XXJQR6XUfSajiJQBv-7" value="&amp;lt;&amp;lt;include&amp;gt;&amp;gt;" style="endArrow=open;endSize=12;dashed=1;html=1;rounded=0;entryX=0;entryY=0.5;entryDx=0;entryDy=0;" parent="1" target="jN1XXJQR6XUfSajiJQBv-3" edge="1">
          <mxGeometry width="160" relative="1" as="geometry">
            <mxPoint x="730" y="380" as="sourcePoint" />
            <mxPoint x="858" y="820" as="targetPoint" />
          </mxGeometry>
        </mxCell>
        <mxCell id="oyxYC7p3GmtmiMxruvlk-1" value="User" style="shape=umlActor;verticalLabelPosition=bottom;verticalAlign=top;html=1;outlineConnect=0;" parent="1" vertex="1">
          <mxGeometry x="260" y="910" width="30" height="60" as="geometry" />
        </mxCell>
        <mxCell id="C_IlHXuLo4t96ccv80K1-9" value="Gerer Les Comptes Owner" style="ellipse;whiteSpace=wrap;html=1;" parent="1" vertex="1">
          <mxGeometry x="480" y="610" width="240" height="60" as="geometry" />
        </mxCell>
        <mxCell id="C_IlHXuLo4t96ccv80K1-11" value="" style="endArrow=none;html=1;rounded=0;exitX=0.5;exitY=0.5;exitDx=0;exitDy=0;exitPerimeter=0;entryX=0.031;entryY=0.356;entryDx=0;entryDy=0;entryPerimeter=0;" parent="1" source="oyxYC7p3GmtmiMxruvlk-2" target="C_IlHXuLo4t96ccv80K1-9" edge="1">
          <mxGeometry width="50" height="50" relative="1" as="geometry">
            <mxPoint x="285" y="670" as="sourcePoint" />
            <mxPoint x="490" y="570" as="targetPoint" />
          </mxGeometry>
        </mxCell>
      </root>
    </mxGraphModel>
  </diagram>
  <diagram id="LFkCnb4qeMZyGFHx7Eqo" name="sequenceAdmin">
    <mxGraphModel dx="1690" dy="573" grid="0" gridSize="10" guides="1" tooltips="1" connect="1" arrows="1" fold="1" page="0" pageScale="1" pageWidth="827" pageHeight="1169" math="0" shadow="0">
      <root>
        <mxCell id="0" />
        <mxCell id="1" parent="0" />
        <mxCell id="Ls_dzNmJnzylHjJiiB_Z-13" value="&lt;div style=&quot;&quot;&gt;&lt;br&gt;&lt;/div&gt;" style="shape=umlLifeline;perimeter=lifelinePerimeter;whiteSpace=wrap;html=1;container=1;dropTarget=0;collapsible=0;recursiveResize=0;outlineConnect=0;portConstraint=eastwest;newEdgeStyle={&quot;edgeStyle&quot;:&quot;elbowEdgeStyle&quot;,&quot;elbow&quot;:&quot;vertical&quot;,&quot;curved&quot;:0,&quot;rounded&quot;:0};participant=umlActor;fontSize=16;align=right;" parent="1" vertex="1">
          <mxGeometry y="43" width="21.37" height="525" as="geometry" />
        </mxCell>
        <mxCell id="Ls_dzNmJnzylHjJiiB_Z-17" value="" style="html=1;points=[];perimeter=orthogonalPerimeter;outlineConnect=0;targetShapes=umlLifeline;portConstraint=eastwest;newEdgeStyle={&quot;edgeStyle&quot;:&quot;elbowEdgeStyle&quot;,&quot;elbow&quot;:&quot;vertical&quot;,&quot;curved&quot;:0,&quot;rounded&quot;:0};fontSize=16;" parent="Ls_dzNmJnzylHjJiiB_Z-13" vertex="1">
          <mxGeometry x="5" y="55" width="10" height="249" as="geometry" />
        </mxCell>
        <mxCell id="Ls_dzNmJnzylHjJiiB_Z-23" value="" style="endArrow=block;endSize=16;endFill=0;html=1;rounded=0;fontSize=12;curved=1;" parent="1" edge="1">
          <mxGeometry width="160" relative="1" as="geometry">
            <mxPoint x="16" y="124" as="sourcePoint" />
            <mxPoint x="279" y="124" as="targetPoint" />
          </mxGeometry>
        </mxCell>
        <mxCell id="Ls_dzNmJnzylHjJiiB_Z-24" value="&lt;font style=&quot;font-size: 12px;&quot;&gt;Saisir Email et mot de passe()&lt;/font&gt;" style="text;strokeColor=none;align=center;fillColor=none;html=1;verticalAlign=middle;whiteSpace=wrap;rounded=0;fontSize=16;" parent="1" vertex="1">
          <mxGeometry x="64" y="125" width="174" height="30" as="geometry" />
        </mxCell>
        <mxCell id="Ls_dzNmJnzylHjJiiB_Z-26" value="&lt;font style=&quot;font-size: 13px;&quot;&gt;Admin&lt;/font&gt;" style="text;strokeColor=none;align=center;fillColor=none;html=1;verticalAlign=middle;whiteSpace=wrap;rounded=0;fontSize=16;" parent="1" vertex="1">
          <mxGeometry x="-20" y="9" width="60" height="30" as="geometry" />
        </mxCell>
        <mxCell id="Ls_dzNmJnzylHjJiiB_Z-30" value="&lt;font style=&quot;font-size: 13px;&quot;&gt;View&lt;/font&gt;" style="html=1;whiteSpace=wrap;fontSize=16;" parent="1" vertex="1">
          <mxGeometry x="244" y="44" width="80" height="37" as="geometry" />
        </mxCell>
        <mxCell id="Ls_dzNmJnzylHjJiiB_Z-31" value="" style="endArrow=none;dashed=1;html=1;rounded=0;fontSize=12;startSize=8;endSize=8;curved=1;entryX=0.5;entryY=1;entryDx=0;entryDy=0;" parent="1" source="Ls_dzNmJnzylHjJiiB_Z-32" target="Ls_dzNmJnzylHjJiiB_Z-30" edge="1">
          <mxGeometry width="50" height="50" relative="1" as="geometry">
            <mxPoint x="287" y="398" as="sourcePoint" />
            <mxPoint x="292" y="262" as="targetPoint" />
          </mxGeometry>
        </mxCell>
        <mxCell id="Ls_dzNmJnzylHjJiiB_Z-33" value="" style="endArrow=none;dashed=1;html=1;rounded=0;fontSize=12;startSize=8;endSize=8;curved=1;entryX=0.5;entryY=1;entryDx=0;entryDy=0;" parent="1" target="Ls_dzNmJnzylHjJiiB_Z-32" edge="1">
          <mxGeometry width="50" height="50" relative="1" as="geometry">
            <mxPoint x="284" y="561" as="sourcePoint" />
            <mxPoint x="356" y="135" as="targetPoint" />
          </mxGeometry>
        </mxCell>
        <mxCell id="Ls_dzNmJnzylHjJiiB_Z-32" value="" style="html=1;points=[];perimeter=orthogonalPerimeter;outlineConnect=0;targetShapes=umlLifeline;portConstraint=eastwest;newEdgeStyle={&quot;edgeStyle&quot;:&quot;elbowEdgeStyle&quot;,&quot;elbow&quot;:&quot;vertical&quot;,&quot;curved&quot;:0,&quot;rounded&quot;:0};fontSize=16;" parent="1" vertex="1">
          <mxGeometry x="279" y="125" width="11.2" height="290" as="geometry" />
        </mxCell>
        <mxCell id="Ls_dzNmJnzylHjJiiB_Z-34" value="&lt;font style=&quot;font-size: 13px;&quot;&gt;Service&lt;/font&gt;" style="html=1;whiteSpace=wrap;fontSize=16;" parent="1" vertex="1">
          <mxGeometry x="510" y="44" width="80" height="37" as="geometry" />
        </mxCell>
        <mxCell id="Ls_dzNmJnzylHjJiiB_Z-35" value="" style="endArrow=none;dashed=1;html=1;rounded=0;fontSize=12;startSize=8;endSize=8;curved=1;entryX=0.5;entryY=1;entryDx=0;entryDy=0;" parent="1" target="Ls_dzNmJnzylHjJiiB_Z-34" edge="1">
          <mxGeometry width="50" height="50" relative="1" as="geometry">
            <mxPoint x="550" y="548" as="sourcePoint" />
            <mxPoint x="550" y="135" as="targetPoint" />
          </mxGeometry>
        </mxCell>
        <mxCell id="Ls_dzNmJnzylHjJiiB_Z-36" value="" style="html=1;points=[];perimeter=orthogonalPerimeter;outlineConnect=0;targetShapes=umlLifeline;portConstraint=eastwest;newEdgeStyle={&quot;edgeStyle&quot;:&quot;elbowEdgeStyle&quot;,&quot;elbow&quot;:&quot;vertical&quot;,&quot;curved&quot;:0,&quot;rounded&quot;:0};fontSize=16;" parent="1" vertex="1">
          <mxGeometry x="545" y="156" width="10" height="255" as="geometry" />
        </mxCell>
        <mxCell id="Ls_dzNmJnzylHjJiiB_Z-37" value="&lt;font style=&quot;font-size: 13px;&quot;&gt;Database&lt;/font&gt;" style="html=1;whiteSpace=wrap;fontSize=16;" parent="1" vertex="1">
          <mxGeometry x="715" y="42" width="80" height="37" as="geometry" />
        </mxCell>
        <mxCell id="Ls_dzNmJnzylHjJiiB_Z-38" value="" style="endArrow=none;dashed=1;html=1;rounded=0;fontSize=12;startSize=8;endSize=8;curved=1;entryX=0.5;entryY=1;entryDx=0;entryDy=0;" parent="1" target="Ls_dzNmJnzylHjJiiB_Z-37" edge="1">
          <mxGeometry width="50" height="50" relative="1" as="geometry">
            <mxPoint x="755" y="545" as="sourcePoint" />
            <mxPoint x="755" y="135" as="targetPoint" />
          </mxGeometry>
        </mxCell>
        <mxCell id="Ls_dzNmJnzylHjJiiB_Z-39" value="" style="html=1;points=[];perimeter=orthogonalPerimeter;outlineConnect=0;targetShapes=umlLifeline;portConstraint=eastwest;newEdgeStyle={&quot;edgeStyle&quot;:&quot;elbowEdgeStyle&quot;,&quot;elbow&quot;:&quot;vertical&quot;,&quot;curved&quot;:0,&quot;rounded&quot;:0};fontSize=16;" parent="1" vertex="1">
          <mxGeometry x="750" y="156" width="10" height="243" as="geometry" />
        </mxCell>
        <mxCell id="Ls_dzNmJnzylHjJiiB_Z-40" value="" style="endArrow=block;endSize=16;endFill=0;html=1;rounded=0;fontSize=12;curved=1;" parent="1" edge="1">
          <mxGeometry width="160" relative="1" as="geometry">
            <mxPoint x="289" y="198" as="sourcePoint" />
            <mxPoint x="544" y="198" as="targetPoint" />
          </mxGeometry>
        </mxCell>
        <mxCell id="Ls_dzNmJnzylHjJiiB_Z-41" value="&lt;font style=&quot;font-size: 12px;&quot;&gt;Valider Format Email et mot de passe()&lt;/font&gt;" style="text;strokeColor=none;align=center;fillColor=none;html=1;verticalAlign=middle;whiteSpace=wrap;rounded=0;fontSize=12;" parent="1" vertex="1">
          <mxGeometry x="329" y="204" width="172" height="30" as="geometry" />
        </mxCell>
        <mxCell id="Ls_dzNmJnzylHjJiiB_Z-43" value="" style="endArrow=block;endSize=16;endFill=0;html=1;rounded=0;fontSize=12;curved=1;" parent="1" source="Ls_dzNmJnzylHjJiiB_Z-36" edge="1">
          <mxGeometry width="160" relative="1" as="geometry">
            <mxPoint x="560" y="183" as="sourcePoint" />
            <mxPoint x="747" y="183" as="targetPoint" />
          </mxGeometry>
        </mxCell>
        <mxCell id="Ls_dzNmJnzylHjJiiB_Z-44" value="loop1,3" style="shape=umlFrame;whiteSpace=wrap;html=1;pointerEvents=0;fontSize=16;" parent="1" vertex="1">
          <mxGeometry x="-13" y="244" width="796" height="111" as="geometry" />
        </mxCell>
        <mxCell id="Ls_dzNmJnzylHjJiiB_Z-46" value="" style="endArrow=open;endFill=1;endSize=12;html=1;rounded=0;fontSize=12;curved=1;" parent="1" edge="1">
          <mxGeometry width="160" relative="1" as="geometry">
            <mxPoint x="279" y="285" as="sourcePoint" />
            <mxPoint x="15" y="285" as="targetPoint" />
          </mxGeometry>
        </mxCell>
        <mxCell id="Ls_dzNmJnzylHjJiiB_Z-47" value="" style="endArrow=open;endFill=1;endSize=12;html=1;rounded=0;fontSize=12;curved=1;" parent="1" edge="1">
          <mxGeometry width="160" relative="1" as="geometry">
            <mxPoint x="544" y="287" as="sourcePoint" />
            <mxPoint x="291" y="287.5" as="targetPoint" />
          </mxGeometry>
        </mxCell>
        <mxCell id="Ls_dzNmJnzylHjJiiB_Z-48" value="" style="endArrow=open;endFill=1;endSize=12;html=1;rounded=0;fontSize=12;curved=1;" parent="1" edge="1">
          <mxGeometry width="160" relative="1" as="geometry">
            <mxPoint x="748" y="268" as="sourcePoint" />
            <mxPoint x="553" y="268" as="targetPoint" />
          </mxGeometry>
        </mxCell>
        <mxCell id="Ls_dzNmJnzylHjJiiB_Z-52" value="&lt;font style=&quot;font-size: 12px;&quot;&gt;Verifier Email et mot de passe dans la base de donne()&lt;/font&gt;" style="text;strokeColor=none;align=center;fillColor=none;html=1;verticalAlign=middle;whiteSpace=wrap;rounded=0;fontSize=12;" parent="1" vertex="1">
          <mxGeometry x="561" y="191" width="172" height="30" as="geometry" />
        </mxCell>
        <mxCell id="Ls_dzNmJnzylHjJiiB_Z-53" value="&lt;font style=&quot;font-size: 12px;&quot;&gt;Email ou mot de passe Incorrecte()&lt;/font&gt;" style="text;strokeColor=none;align=center;fillColor=none;html=1;verticalAlign=middle;whiteSpace=wrap;rounded=0;fontSize=12;" parent="1" vertex="1">
          <mxGeometry x="576" y="275" width="172" height="30" as="geometry" />
        </mxCell>
        <mxCell id="Ls_dzNmJnzylHjJiiB_Z-54" value="&lt;font style=&quot;font-size: 12px;&quot;&gt;Email ou mot de passe Incorrecte()&lt;/font&gt;" style="text;strokeColor=none;align=center;fillColor=none;html=1;verticalAlign=middle;whiteSpace=wrap;rounded=0;fontSize=12;" parent="1" vertex="1">
          <mxGeometry x="338" y="292" width="172" height="30" as="geometry" />
        </mxCell>
        <mxCell id="Ls_dzNmJnzylHjJiiB_Z-55" value="Incorrecte" style="text;strokeColor=none;align=center;fillColor=none;html=1;verticalAlign=middle;whiteSpace=wrap;rounded=0;fontSize=12;" parent="1" vertex="1">
          <mxGeometry x="66" y="290" width="172" height="30" as="geometry" />
        </mxCell>
        <mxCell id="Ls_dzNmJnzylHjJiiB_Z-57" value="" style="endArrow=open;endFill=1;endSize=12;html=1;rounded=0;fontSize=12;curved=1;" parent="1" target="Ls_dzNmJnzylHjJiiB_Z-32" edge="1">
          <mxGeometry width="160" relative="1" as="geometry">
            <mxPoint x="16" y="329" as="sourcePoint" />
            <mxPoint x="145" y="329" as="targetPoint" />
          </mxGeometry>
        </mxCell>
        <mxCell id="Ls_dzNmJnzylHjJiiB_Z-58" value="Ressaier" style="text;strokeColor=none;align=center;fillColor=none;html=1;verticalAlign=middle;whiteSpace=wrap;rounded=0;fontSize=12;" parent="1" vertex="1">
          <mxGeometry x="55" y="329" width="172" height="30" as="geometry" />
        </mxCell>
        <mxCell id="Ls_dzNmJnzylHjJiiB_Z-62" value="alt" style="shape=umlFrame;whiteSpace=wrap;html=1;pointerEvents=0;fontSize=16;" parent="1" vertex="1">
          <mxGeometry x="-20" y="151" width="820" height="333" as="geometry" />
        </mxCell>
        <mxCell id="Ls_dzNmJnzylHjJiiB_Z-64" value="else" style="shape=umlFrame;whiteSpace=wrap;html=1;pointerEvents=0;fontSize=16;" parent="1" vertex="1">
          <mxGeometry x="-20" y="375" width="820" height="109" as="geometry" />
        </mxCell>
        <mxCell id="Ls_dzNmJnzylHjJiiB_Z-65" value="" style="endArrow=open;endFill=1;endSize=12;html=1;rounded=0;fontSize=12;curved=1;" parent="1" edge="1">
          <mxGeometry width="160" relative="1" as="geometry">
            <mxPoint x="750" y="399" as="sourcePoint" />
            <mxPoint x="555" y="399" as="targetPoint" />
          </mxGeometry>
        </mxCell>
        <mxCell id="Ls_dzNmJnzylHjJiiB_Z-66" value="&lt;font style=&quot;font-size: 12px;&quot;&gt;Admin Trouve()&lt;/font&gt;" style="text;strokeColor=none;align=center;fillColor=none;html=1;verticalAlign=middle;whiteSpace=wrap;rounded=0;fontSize=12;" parent="1" vertex="1">
          <mxGeometry x="583" y="399" width="172" height="30" as="geometry" />
        </mxCell>
        <mxCell id="Ls_dzNmJnzylHjJiiB_Z-67" value="&lt;font style=&quot;font-size: 12px;&quot;&gt;Redirect La page vers autre()&lt;/font&gt;" style="text;strokeColor=none;align=center;fillColor=none;html=1;verticalAlign=middle;whiteSpace=wrap;rounded=0;fontSize=12;" parent="1" vertex="1">
          <mxGeometry x="355" y="409" width="172" height="30" as="geometry" />
        </mxCell>
        <mxCell id="Ls_dzNmJnzylHjJiiB_Z-68" value="" style="endArrow=open;endFill=1;endSize=12;html=1;rounded=0;fontSize=12;curved=1;" parent="1" source="Ls_dzNmJnzylHjJiiB_Z-36" edge="1">
          <mxGeometry width="160" relative="1" as="geometry">
            <mxPoint x="485.2" y="411" as="sourcePoint" />
            <mxPoint x="290.2" y="411" as="targetPoint" />
          </mxGeometry>
        </mxCell>
        <mxCell id="Ls_dzNmJnzylHjJiiB_Z-69" value="" style="endArrow=open;endFill=1;endSize=12;html=1;rounded=0;fontSize=12;curved=1;" parent="1" source="Ls_dzNmJnzylHjJiiB_Z-32" edge="1">
          <mxGeometry width="160" relative="1" as="geometry">
            <mxPoint x="270.8" y="415" as="sourcePoint" />
            <mxPoint x="16" y="415" as="targetPoint" />
          </mxGeometry>
        </mxCell>
        <mxCell id="Ls_dzNmJnzylHjJiiB_Z-70" value="&lt;font style=&quot;font-size: 12px;&quot;&gt;Dashboard()&lt;/font&gt;" style="text;strokeColor=none;align=center;fillColor=none;html=1;verticalAlign=middle;whiteSpace=wrap;rounded=0;fontSize=12;" parent="1" vertex="1">
          <mxGeometry x="78" y="417" width="172" height="30" as="geometry" />
        </mxCell>
      </root>
    </mxGraphModel>
  </diagram>
  <diagram id="nPiMwICSmOJndpJwCKLi" name="Sequence Client">
    <mxGraphModel dx="1918" dy="1074" grid="0" gridSize="10" guides="1" tooltips="1" connect="1" arrows="0" fold="1" page="0" pageScale="1" pageWidth="827" pageHeight="1169" math="0" shadow="0">
      <root>
        <mxCell id="0" />
        <mxCell id="1" parent="0" />
        <mxCell id="pt8OWd2sOEDAlgRB6GiU-1" value="&lt;div style=&quot;&quot;&gt;&lt;br&gt;&lt;/div&gt;" style="shape=umlLifeline;perimeter=lifelinePerimeter;whiteSpace=wrap;html=1;container=1;dropTarget=0;collapsible=0;recursiveResize=0;outlineConnect=0;portConstraint=eastwest;newEdgeStyle={&quot;edgeStyle&quot;:&quot;elbowEdgeStyle&quot;,&quot;elbow&quot;:&quot;vertical&quot;,&quot;curved&quot;:0,&quot;rounded&quot;:0};participant=umlActor;fontSize=16;align=right;" parent="1" vertex="1">
          <mxGeometry x="-148" y="11" width="21.37" height="642" as="geometry" />
        </mxCell>
        <mxCell id="pt8OWd2sOEDAlgRB6GiU-2" value="" style="html=1;points=[];perimeter=orthogonalPerimeter;outlineConnect=0;targetShapes=umlLifeline;portConstraint=eastwest;newEdgeStyle={&quot;edgeStyle&quot;:&quot;elbowEdgeStyle&quot;,&quot;elbow&quot;:&quot;vertical&quot;,&quot;curved&quot;:0,&quot;rounded&quot;:0};fontSize=16;" parent="pt8OWd2sOEDAlgRB6GiU-1" vertex="1">
          <mxGeometry x="5" y="55" width="10" height="543" as="geometry" />
        </mxCell>
        <mxCell id="pt8OWd2sOEDAlgRB6GiU-3" value="" style="endArrow=block;endSize=16;endFill=0;html=1;rounded=0;fontSize=12;curved=1;" parent="1" edge="1">
          <mxGeometry width="160" relative="1" as="geometry">
            <mxPoint x="-132" y="92" as="sourcePoint" />
            <mxPoint x="131" y="92" as="targetPoint" />
          </mxGeometry>
        </mxCell>
        <mxCell id="pt8OWd2sOEDAlgRB6GiU-4" value="&lt;span style=&quot;font-size: 12px;&quot;&gt;Rechercher une aPK avec un mot cle&lt;/span&gt;" style="text;strokeColor=none;align=center;fillColor=none;html=1;verticalAlign=middle;whiteSpace=wrap;rounded=0;fontSize=16;" parent="1" vertex="1">
          <mxGeometry x="-84" y="99" width="174" height="30" as="geometry" />
        </mxCell>
        <mxCell id="pt8OWd2sOEDAlgRB6GiU-5" value="&lt;font style=&quot;font-size: 13px;&quot;&gt;Client&lt;/font&gt;" style="text;strokeColor=none;align=center;fillColor=none;html=1;verticalAlign=middle;whiteSpace=wrap;rounded=0;fontSize=16;" parent="1" vertex="1">
          <mxGeometry x="-168" y="-23" width="60" height="30" as="geometry" />
        </mxCell>
        <mxCell id="pt8OWd2sOEDAlgRB6GiU-6" value="&lt;font style=&quot;font-size: 13px;&quot;&gt;View&lt;/font&gt;" style="html=1;whiteSpace=wrap;fontSize=16;" parent="1" vertex="1">
          <mxGeometry x="96" y="12" width="80" height="37" as="geometry" />
        </mxCell>
        <mxCell id="pt8OWd2sOEDAlgRB6GiU-7" value="" style="endArrow=none;dashed=1;html=1;rounded=0;fontSize=12;startSize=8;endSize=8;curved=1;entryX=0.5;entryY=1;entryDx=0;entryDy=0;" parent="1" source="pt8OWd2sOEDAlgRB6GiU-9" target="pt8OWd2sOEDAlgRB6GiU-6" edge="1">
          <mxGeometry width="50" height="50" relative="1" as="geometry">
            <mxPoint x="139" y="366" as="sourcePoint" />
            <mxPoint x="144" y="230" as="targetPoint" />
          </mxGeometry>
        </mxCell>
        <mxCell id="pt8OWd2sOEDAlgRB6GiU-8" value="" style="endArrow=none;dashed=1;html=1;rounded=0;fontSize=12;startSize=8;endSize=8;curved=1;entryX=0.5;entryY=1;entryDx=0;entryDy=0;" parent="1" target="pt8OWd2sOEDAlgRB6GiU-9" edge="1">
          <mxGeometry width="50" height="50" relative="1" as="geometry">
            <mxPoint x="136" y="665" as="sourcePoint" />
            <mxPoint x="208" y="103" as="targetPoint" />
          </mxGeometry>
        </mxCell>
        <mxCell id="pt8OWd2sOEDAlgRB6GiU-9" value="" style="html=1;points=[];perimeter=orthogonalPerimeter;outlineConnect=0;targetShapes=umlLifeline;portConstraint=eastwest;newEdgeStyle={&quot;edgeStyle&quot;:&quot;elbowEdgeStyle&quot;,&quot;elbow&quot;:&quot;vertical&quot;,&quot;curved&quot;:0,&quot;rounded&quot;:0};fontSize=16;" parent="1" vertex="1">
          <mxGeometry x="131" y="93" width="11.2" height="525" as="geometry" />
        </mxCell>
        <mxCell id="pt8OWd2sOEDAlgRB6GiU-10" value="&lt;font style=&quot;font-size: 13px;&quot;&gt;Service&lt;/font&gt;" style="html=1;whiteSpace=wrap;fontSize=16;" parent="1" vertex="1">
          <mxGeometry x="362" y="12" width="80" height="37" as="geometry" />
        </mxCell>
        <mxCell id="pt8OWd2sOEDAlgRB6GiU-11" value="" style="endArrow=none;dashed=1;html=1;rounded=0;fontSize=12;startSize=8;endSize=8;curved=1;entryX=0.5;entryY=1;entryDx=0;entryDy=0;" parent="1" target="pt8OWd2sOEDAlgRB6GiU-10" edge="1">
          <mxGeometry width="50" height="50" relative="1" as="geometry">
            <mxPoint x="402" y="670" as="sourcePoint" />
            <mxPoint x="402" y="103" as="targetPoint" />
          </mxGeometry>
        </mxCell>
        <mxCell id="pt8OWd2sOEDAlgRB6GiU-12" value="" style="html=1;points=[];perimeter=orthogonalPerimeter;outlineConnect=0;targetShapes=umlLifeline;portConstraint=eastwest;newEdgeStyle={&quot;edgeStyle&quot;:&quot;elbowEdgeStyle&quot;,&quot;elbow&quot;:&quot;vertical&quot;,&quot;curved&quot;:0,&quot;rounded&quot;:0};fontSize=16;" parent="1" vertex="1">
          <mxGeometry x="397" y="133" width="10" height="492" as="geometry" />
        </mxCell>
        <mxCell id="pt8OWd2sOEDAlgRB6GiU-13" value="&lt;font style=&quot;font-size: 13px;&quot;&gt;Database&lt;/font&gt;" style="html=1;whiteSpace=wrap;fontSize=16;" parent="1" vertex="1">
          <mxGeometry x="567" y="10" width="80" height="37" as="geometry" />
        </mxCell>
        <mxCell id="pt8OWd2sOEDAlgRB6GiU-14" value="" style="endArrow=none;dashed=1;html=1;rounded=0;fontSize=12;startSize=8;endSize=8;curved=1;entryX=0.5;entryY=1;entryDx=0;entryDy=0;" parent="1" target="pt8OWd2sOEDAlgRB6GiU-13" edge="1">
          <mxGeometry width="50" height="50" relative="1" as="geometry">
            <mxPoint x="607" y="655" as="sourcePoint" />
            <mxPoint x="607" y="103" as="targetPoint" />
          </mxGeometry>
        </mxCell>
        <mxCell id="pt8OWd2sOEDAlgRB6GiU-15" value="" style="html=1;points=[];perimeter=orthogonalPerimeter;outlineConnect=0;targetShapes=umlLifeline;portConstraint=eastwest;newEdgeStyle={&quot;edgeStyle&quot;:&quot;elbowEdgeStyle&quot;,&quot;elbow&quot;:&quot;vertical&quot;,&quot;curved&quot;:0,&quot;rounded&quot;:0};fontSize=16;" parent="1" vertex="1">
          <mxGeometry x="602" y="133" width="10" height="486" as="geometry" />
        </mxCell>
        <mxCell id="pt8OWd2sOEDAlgRB6GiU-16" value="" style="endArrow=block;endSize=16;endFill=0;html=1;rounded=0;fontSize=12;curved=1;" parent="1" edge="1">
          <mxGeometry width="160" relative="1" as="geometry">
            <mxPoint x="141" y="166" as="sourcePoint" />
            <mxPoint x="396" y="166" as="targetPoint" />
          </mxGeometry>
        </mxCell>
        <mxCell id="pt8OWd2sOEDAlgRB6GiU-17" value="&lt;font style=&quot;font-size: 12px;&quot;&gt;Rechercher&amp;nbsp;des app dans le la base de donne&lt;/font&gt;" style="text;strokeColor=none;align=center;fillColor=none;html=1;verticalAlign=middle;whiteSpace=wrap;rounded=0;fontSize=12;" parent="1" vertex="1">
          <mxGeometry x="181" y="172" width="190" height="30" as="geometry" />
        </mxCell>
        <mxCell id="pt8OWd2sOEDAlgRB6GiU-18" value="" style="endArrow=block;endSize=16;endFill=0;html=1;rounded=0;fontSize=12;curved=1;" parent="1" source="pt8OWd2sOEDAlgRB6GiU-12" edge="1">
          <mxGeometry width="160" relative="1" as="geometry">
            <mxPoint x="412" y="151" as="sourcePoint" />
            <mxPoint x="599" y="151" as="targetPoint" />
          </mxGeometry>
        </mxCell>
        <mxCell id="pt8OWd2sOEDAlgRB6GiU-20" value="" style="endArrow=open;endFill=1;endSize=12;html=1;rounded=0;fontSize=12;curved=1;" parent="1" edge="1">
          <mxGeometry width="160" relative="1" as="geometry">
            <mxPoint x="131" y="253" as="sourcePoint" />
            <mxPoint x="-133" y="253" as="targetPoint" />
          </mxGeometry>
        </mxCell>
        <mxCell id="pt8OWd2sOEDAlgRB6GiU-21" value="" style="endArrow=open;endFill=1;endSize=12;html=1;rounded=0;fontSize=12;curved=1;" parent="1" edge="1">
          <mxGeometry width="160" relative="1" as="geometry">
            <mxPoint x="396" y="255" as="sourcePoint" />
            <mxPoint x="143" y="255.5" as="targetPoint" />
          </mxGeometry>
        </mxCell>
        <mxCell id="pt8OWd2sOEDAlgRB6GiU-22" value="" style="endArrow=open;endFill=1;endSize=12;html=1;rounded=0;fontSize=12;curved=1;" parent="1" edge="1">
          <mxGeometry width="160" relative="1" as="geometry">
            <mxPoint x="600" y="236" as="sourcePoint" />
            <mxPoint x="405" y="236" as="targetPoint" />
          </mxGeometry>
        </mxCell>
        <mxCell id="pt8OWd2sOEDAlgRB6GiU-23" value="&lt;font style=&quot;font-size: 12px;&quot;&gt;Verifier la disponibiliter dans la base de donne()&lt;/font&gt;" style="text;strokeColor=none;align=center;fillColor=none;html=1;verticalAlign=middle;whiteSpace=wrap;rounded=0;fontSize=12;" parent="1" vertex="1">
          <mxGeometry x="413" y="159" width="172" height="30" as="geometry" />
        </mxCell>
        <mxCell id="pt8OWd2sOEDAlgRB6GiU-24" value="Application trouve" style="text;strokeColor=none;align=center;fillColor=none;html=1;verticalAlign=middle;whiteSpace=wrap;rounded=0;fontSize=12;" parent="1" vertex="1">
          <mxGeometry x="428" y="243" width="172" height="30" as="geometry" />
        </mxCell>
        <mxCell id="pt8OWd2sOEDAlgRB6GiU-25" value="&lt;font style=&quot;font-size: 12px;&quot;&gt;Retourner l&#39;application et les articles qui&amp;nbsp;tu parles de&lt;/font&gt;" style="text;strokeColor=none;align=center;fillColor=none;html=1;verticalAlign=middle;whiteSpace=wrap;rounded=0;fontSize=12;" parent="1" vertex="1">
          <mxGeometry x="190" y="260" width="172" height="30" as="geometry" />
        </mxCell>
        <mxCell id="pt8OWd2sOEDAlgRB6GiU-26" value="Retourner l&#39;application et les articles qui&amp;nbsp;tu parles de" style="text;strokeColor=none;align=center;fillColor=none;html=1;verticalAlign=middle;whiteSpace=wrap;rounded=0;fontSize=12;" parent="1" vertex="1">
          <mxGeometry x="-82" y="258" width="172" height="30" as="geometry" />
        </mxCell>
        <mxCell id="pt8OWd2sOEDAlgRB6GiU-29" value="alt" style="shape=umlFrame;whiteSpace=wrap;html=1;pointerEvents=0;fontSize=16;" parent="1" vertex="1">
          <mxGeometry x="-168" y="133" width="820" height="325" as="geometry" />
        </mxCell>
        <mxCell id="pt8OWd2sOEDAlgRB6GiU-30" value="else" style="shape=umlFrame;whiteSpace=wrap;html=1;pointerEvents=0;fontSize=16;" parent="1" vertex="1">
          <mxGeometry x="-168" y="444" width="820" height="109" as="geometry" />
        </mxCell>
        <mxCell id="pt8OWd2sOEDAlgRB6GiU-31" value="" style="endArrow=open;endFill=1;endSize=12;html=1;rounded=0;fontSize=12;curved=1;" parent="1" edge="1">
          <mxGeometry width="160" relative="1" as="geometry">
            <mxPoint x="602" y="468" as="sourcePoint" />
            <mxPoint x="407" y="468" as="targetPoint" />
          </mxGeometry>
        </mxCell>
        <mxCell id="pt8OWd2sOEDAlgRB6GiU-32" value="&lt;font style=&quot;font-size: 12px;&quot;&gt;Application non Trouve()&lt;/font&gt;" style="text;strokeColor=none;align=center;fillColor=none;html=1;verticalAlign=middle;whiteSpace=wrap;rounded=0;fontSize=12;" parent="1" vertex="1">
          <mxGeometry x="435" y="468" width="172" height="30" as="geometry" />
        </mxCell>
        <mxCell id="pt8OWd2sOEDAlgRB6GiU-33" value="&lt;font style=&quot;font-size: 12px;&quot;&gt;Retourner les applications et les articles&amp;nbsp;dans la meme format()&lt;/font&gt;" style="text;strokeColor=none;align=center;fillColor=none;html=1;verticalAlign=middle;whiteSpace=wrap;rounded=0;fontSize=12;" parent="1" vertex="1">
          <mxGeometry x="186" y="489" width="195" height="30" as="geometry" />
        </mxCell>
        <mxCell id="pt8OWd2sOEDAlgRB6GiU-34" value="" style="endArrow=open;endFill=1;endSize=12;html=1;rounded=0;fontSize=12;curved=1;" parent="1" edge="1">
          <mxGeometry width="160" relative="1" as="geometry">
            <mxPoint x="397" y="480" as="sourcePoint" />
            <mxPoint x="142.2" y="480" as="targetPoint" />
          </mxGeometry>
        </mxCell>
        <mxCell id="pt8OWd2sOEDAlgRB6GiU-35" value="" style="endArrow=open;endFill=1;endSize=12;html=1;rounded=0;fontSize=12;curved=1;" parent="1" edge="1">
          <mxGeometry width="160" relative="1" as="geometry">
            <mxPoint x="131" y="484" as="sourcePoint" />
            <mxPoint x="-132" y="484" as="targetPoint" />
          </mxGeometry>
        </mxCell>
        <mxCell id="pt8OWd2sOEDAlgRB6GiU-36" value="l&#39;accès pour telecharger une application et consulter les articles()" style="text;strokeColor=none;align=center;fillColor=none;html=1;verticalAlign=middle;whiteSpace=wrap;rounded=0;fontSize=12;" parent="1" vertex="1">
          <mxGeometry x="-72" y="489" width="172" height="50" as="geometry" />
        </mxCell>
        <mxCell id="b1ceS22y_fYVynXRsTg8-1" value="" style="endArrow=block;endSize=16;endFill=0;html=1;rounded=0;fontSize=12;curved=1;" parent="1" edge="1">
          <mxGeometry width="160" relative="1" as="geometry">
            <mxPoint x="-132" y="314" as="sourcePoint" />
            <mxPoint x="131" y="314" as="targetPoint" />
          </mxGeometry>
        </mxCell>
        <mxCell id="b1ceS22y_fYVynXRsTg8-2" value="l&#39;accès pour telecharger une application et consulter les articles()" style="text;strokeColor=none;align=center;fillColor=none;html=1;verticalAlign=middle;whiteSpace=wrap;rounded=0;fontSize=12;" parent="1" vertex="1">
          <mxGeometry x="-76" y="321" width="172" height="50" as="geometry" />
        </mxCell>
      </root>
    </mxGraphModel>
  </diagram>
  <diagram id="YtmgGo52qxTbtg_8Vwh8" name="Page-5">
    <mxGraphModel dx="2150" dy="955" grid="1" gridSize="10" guides="1" tooltips="1" connect="1" arrows="1" fold="1" page="1" pageScale="1" pageWidth="827" pageHeight="1169" math="0" shadow="0">
      <root>
        <mxCell id="0" />
        <mxCell id="1" parent="0" />
        <mxCell id="YepvNfcR-y1HLXuwJn5Z-3" value="" style="rounded=0;whiteSpace=wrap;html=1;" vertex="1" parent="1">
          <mxGeometry x="70" y="60" width="670" height="40" as="geometry" />
        </mxCell>
        <mxCell id="YepvNfcR-y1HLXuwJn5Z-4" value="Owner" style="text;strokeColor=none;align=center;fillColor=none;html=1;verticalAlign=middle;whiteSpace=wrap;rounded=0;" vertex="1" parent="1">
          <mxGeometry x="110" y="65" width="60" height="30" as="geometry" />
        </mxCell>
        <mxCell id="YepvNfcR-y1HLXuwJn5Z-5" value="Admin" style="text;strokeColor=none;align=center;fillColor=none;html=1;verticalAlign=middle;whiteSpace=wrap;rounded=0;" vertex="1" parent="1">
          <mxGeometry x="384" y="65" width="60" height="30" as="geometry" />
        </mxCell>
        <mxCell id="YepvNfcR-y1HLXuwJn5Z-6" value="User" style="text;strokeColor=none;align=center;fillColor=none;html=1;verticalAlign=middle;whiteSpace=wrap;rounded=0;" vertex="1" parent="1">
          <mxGeometry x="610" y="65" width="60" height="30" as="geometry" />
        </mxCell>
        <mxCell id="ukeXJ8pDAbe5DNPSKjXT-1" value="" style="shape=waypoint;sketch=0;fillStyle=solid;size=6;pointerEvents=1;points=[];fillColor=none;resizable=0;rotatable=0;perimeter=centerPerimeter;snapToPoint=1;" vertex="1" parent="1">
          <mxGeometry x="130" y="110" width="20" height="20" as="geometry" />
        </mxCell>
        <mxCell id="ukeXJ8pDAbe5DNPSKjXT-3" value="" style="endArrow=classic;html=1;rounded=0;elbow=vertical;exitX=0.56;exitY=0.79;exitDx=0;exitDy=0;exitPerimeter=0;" edge="1" parent="1" source="ukeXJ8pDAbe5DNPSKjXT-1">
          <mxGeometry width="50" height="50" relative="1" as="geometry">
            <mxPoint x="510" y="300" as="sourcePoint" />
            <mxPoint x="140" y="180" as="targetPoint" />
          </mxGeometry>
        </mxCell>
        <mxCell id="ukeXJ8pDAbe5DNPSKjXT-4" value="Criee un compte" style="shape=ext;double=1;rounded=1;whiteSpace=wrap;html=1;" vertex="1" parent="1">
          <mxGeometry x="80" y="180" width="120" height="50" as="geometry" />
        </mxCell>
        <mxCell id="ukeXJ8pDAbe5DNPSKjXT-7" value="" style="edgeStyle=segmentEdgeStyle;endArrow=classic;html=1;curved=0;rounded=0;endSize=8;startSize=8;elbow=vertical;exitX=1;exitY=0.5;exitDx=0;exitDy=0;" edge="1" parent="1" source="ukeXJ8pDAbe5DNPSKjXT-4">
          <mxGeometry width="50" height="50" relative="1" as="geometry">
            <mxPoint x="320" y="210" as="sourcePoint" />
            <mxPoint x="420" y="220" as="targetPoint" />
          </mxGeometry>
        </mxCell>
        <mxCell id="ukeXJ8pDAbe5DNPSKjXT-8" value="Recevoire les comptes" style="shape=ext;double=1;rounded=1;whiteSpace=wrap;html=1;" vertex="1" parent="1">
          <mxGeometry x="360" y="220" width="120" height="50" as="geometry" />
        </mxCell>
        <mxCell id="ukeXJ8pDAbe5DNPSKjXT-9" value="" style="html=1;whiteSpace=wrap;aspect=fixed;shape=isoRectangle;" vertex="1" parent="1">
          <mxGeometry x="395" y="340" width="50" height="30" as="geometry" />
        </mxCell>
        <mxCell id="ukeXJ8pDAbe5DNPSKjXT-10" value="" style="endArrow=classic;html=1;rounded=0;elbow=vertical;entryX=0.5;entryY=0;entryDx=0;entryDy=0;entryPerimeter=0;exitX=0.5;exitY=1;exitDx=0;exitDy=0;" edge="1" parent="1" source="ukeXJ8pDAbe5DNPSKjXT-8" target="ukeXJ8pDAbe5DNPSKjXT-9">
          <mxGeometry width="50" height="50" relative="1" as="geometry">
            <mxPoint x="420" y="280" as="sourcePoint" />
            <mxPoint x="560" y="250" as="targetPoint" />
          </mxGeometry>
        </mxCell>
        <mxCell id="ukeXJ8pDAbe5DNPSKjXT-11" value="Verification du Compte ?" style="text;strokeColor=none;align=center;fillColor=none;html=1;verticalAlign=middle;whiteSpace=wrap;rounded=0;" vertex="1" parent="1">
          <mxGeometry x="444" y="330" width="120" height="30" as="geometry" />
        </mxCell>
        <mxCell id="ukeXJ8pDAbe5DNPSKjXT-12" value="" style="edgeStyle=segmentEdgeStyle;endArrow=classic;html=1;curved=0;rounded=0;endSize=8;startSize=8;elbow=vertical;exitX=0.02;exitY=0.506;exitDx=0;exitDy=0;exitPerimeter=0;" edge="1" parent="1" source="ukeXJ8pDAbe5DNPSKjXT-9">
          <mxGeometry width="50" height="50" relative="1" as="geometry">
            <mxPoint x="390" y="355" as="sourcePoint" />
            <mxPoint x="140" y="380" as="targetPoint" />
          </mxGeometry>
        </mxCell>
        <mxCell id="ukeXJ8pDAbe5DNPSKjXT-14" value="" style="edgeStyle=segmentEdgeStyle;endArrow=classic;html=1;curved=0;rounded=0;endSize=8;startSize=8;elbow=vertical;exitX=0.465;exitY=0.981;exitDx=0;exitDy=0;exitPerimeter=0;" edge="1" parent="1">
          <mxGeometry width="50" height="50" relative="1" as="geometry">
            <mxPoint x="420.25" y="369.43000000000006" as="sourcePoint" />
            <mxPoint x="420" y="450" as="targetPoint" />
          </mxGeometry>
        </mxCell>
        <mxCell id="ukeXJ8pDAbe5DNPSKjXT-15" value="Le Compte n&#39;a pas ete criee" style="shape=ext;double=1;rounded=1;whiteSpace=wrap;html=1;" vertex="1" parent="1">
          <mxGeometry x="360" y="450" width="140" height="60" as="geometry" />
        </mxCell>
        <mxCell id="ukeXJ8pDAbe5DNPSKjXT-16" value="le compte a ete criee" style="shape=ext;double=1;rounded=1;whiteSpace=wrap;html=1;" vertex="1" parent="1">
          <mxGeometry x="80" y="380" width="120" height="50" as="geometry" />
        </mxCell>
        <mxCell id="ukeXJ8pDAbe5DNPSKjXT-17" value="[ Compte Refuser ]" style="text;strokeColor=none;align=center;fillColor=none;html=1;verticalAlign=middle;whiteSpace=wrap;rounded=0;" vertex="1" parent="1">
          <mxGeometry x="427" y="390" width="130" height="30" as="geometry" />
        </mxCell>
        <mxCell id="ukeXJ8pDAbe5DNPSKjXT-18" value="[ Compte Accepter ]" style="text;strokeColor=none;align=center;fillColor=none;html=1;verticalAlign=middle;whiteSpace=wrap;rounded=0;" vertex="1" parent="1">
          <mxGeometry x="180" y="320" width="150" height="30" as="geometry" />
        </mxCell>
        <mxCell id="ukeXJ8pDAbe5DNPSKjXT-19" value="" style="edgeStyle=segmentEdgeStyle;endArrow=classic;html=1;curved=0;rounded=0;endSize=8;startSize=8;elbow=vertical;" edge="1" parent="1">
          <mxGeometry width="50" height="50" relative="1" as="geometry">
            <mxPoint x="139" y="430" as="sourcePoint" />
            <mxPoint x="139" y="500" as="targetPoint" />
          </mxGeometry>
        </mxCell>
        <mxCell id="ukeXJ8pDAbe5DNPSKjXT-21" value="Uploader les application" style="shape=ext;double=1;rounded=1;whiteSpace=wrap;html=1;" vertex="1" parent="1">
          <mxGeometry x="80" y="500" width="120" height="50" as="geometry" />
        </mxCell>
        <mxCell id="ukeXJ8pDAbe5DNPSKjXT-23" value="" style="html=1;whiteSpace=wrap;aspect=fixed;shape=isoRectangle;" vertex="1" parent="1">
          <mxGeometry x="115" y="620" width="50" height="30" as="geometry" />
        </mxCell>
        <mxCell id="ukeXJ8pDAbe5DNPSKjXT-25" value="" style="edgeStyle=segmentEdgeStyle;endArrow=classic;html=1;curved=0;rounded=0;endSize=8;startSize=8;elbow=vertical;" edge="1" parent="1">
          <mxGeometry width="50" height="50" relative="1" as="geometry">
            <mxPoint x="139.58" y="550" as="sourcePoint" />
            <mxPoint x="139.58" y="620" as="targetPoint" />
          </mxGeometry>
        </mxCell>
        <mxCell id="ukeXJ8pDAbe5DNPSKjXT-27" value="" style="edgeStyle=segmentEdgeStyle;endArrow=classic;html=1;curved=0;rounded=0;endSize=8;startSize=8;elbow=vertical;exitX=0.465;exitY=0.981;exitDx=0;exitDy=0;exitPerimeter=0;" edge="1" parent="1">
          <mxGeometry width="50" height="50" relative="1" as="geometry">
            <mxPoint x="139.69" y="650" as="sourcePoint" />
            <mxPoint x="139" y="700" as="targetPoint" />
          </mxGeometry>
        </mxCell>
        <mxCell id="ukeXJ8pDAbe5DNPSKjXT-28" value="" style="edgeStyle=segmentEdgeStyle;endArrow=classic;html=1;curved=0;rounded=0;endSize=8;startSize=8;elbow=vertical;exitX=0.952;exitY=0.505;exitDx=0;exitDy=0;exitPerimeter=0;" edge="1" parent="1" source="ukeXJ8pDAbe5DNPSKjXT-23">
          <mxGeometry width="50" height="50" relative="1" as="geometry">
            <mxPoint x="250" y="700" as="sourcePoint" />
            <mxPoint x="660" y="700" as="targetPoint" />
          </mxGeometry>
        </mxCell>
        <mxCell id="ukeXJ8pDAbe5DNPSKjXT-40" value="" style="ellipse;whiteSpace=wrap;html=1;" vertex="1" parent="1">
          <mxGeometry x="423.75" y="562.5" width="12.5" height="12.5" as="geometry" />
        </mxCell>
        <mxCell id="ukeXJ8pDAbe5DNPSKjXT-29" value="" style="shape=waypoint;sketch=0;fillStyle=solid;size=6;pointerEvents=1;points=[];fillColor=none;resizable=0;rotatable=0;perimeter=centerPerimeter;snapToPoint=1;" vertex="1" parent="1">
          <mxGeometry x="420" y="558.75" width="20" height="20" as="geometry" />
        </mxCell>
        <mxCell id="ukeXJ8pDAbe5DNPSKjXT-39" value="" style="edgeStyle=segmentEdgeStyle;endArrow=classic;html=1;curved=0;rounded=0;endSize=8;startSize=8;elbow=vertical;exitX=0.465;exitY=0.981;exitDx=0;exitDy=0;exitPerimeter=0;" edge="1" parent="1">
          <mxGeometry width="50" height="50" relative="1" as="geometry">
            <mxPoint x="427.25" y="510.00000000000006" as="sourcePoint" />
            <mxPoint x="430" y="560" as="targetPoint" />
          </mxGeometry>
        </mxCell>
        <mxCell id="ukeXJ8pDAbe5DNPSKjXT-41" value="Verification de l&#39;application ?" style="text;strokeColor=none;align=center;fillColor=none;html=1;verticalAlign=middle;whiteSpace=wrap;rounded=0;" vertex="1" parent="1">
          <mxGeometry x="150" y="590" width="120" height="30" as="geometry" />
        </mxCell>
        <mxCell id="ukeXJ8pDAbe5DNPSKjXT-42" value="[ Application Refuser ]" style="text;strokeColor=none;align=center;fillColor=none;html=1;verticalAlign=middle;whiteSpace=wrap;rounded=0;" vertex="1" parent="1">
          <mxGeometry x="10" y="650" width="130" height="30" as="geometry" />
        </mxCell>
        <mxCell id="ukeXJ8pDAbe5DNPSKjXT-43" value="[ Application Accepte ]" style="text;strokeColor=none;align=center;fillColor=none;html=1;verticalAlign=middle;whiteSpace=wrap;rounded=0;" vertex="1" parent="1">
          <mxGeometry x="530" y="600" width="130" height="30" as="geometry" />
        </mxCell>
        <mxCell id="ukeXJ8pDAbe5DNPSKjXT-44" value="L&#39;application n&#39;a pas ete publier" style="shape=ext;double=1;rounded=1;whiteSpace=wrap;html=1;" vertex="1" parent="1">
          <mxGeometry x="70" y="700" width="140" height="60" as="geometry" />
        </mxCell>
        <mxCell id="ukeXJ8pDAbe5DNPSKjXT-45" value="L&#39;application a ete publier est visible pour l&#39;User" style="shape=ext;double=1;rounded=1;whiteSpace=wrap;html=1;" vertex="1" parent="1">
          <mxGeometry x="590" y="700" width="140" height="60" as="geometry" />
        </mxCell>
        <mxCell id="ukeXJ8pDAbe5DNPSKjXT-46" value="" style="ellipse;whiteSpace=wrap;html=1;" vertex="1" parent="1">
          <mxGeometry x="133.75" y="813.75" width="12.5" height="12.5" as="geometry" />
        </mxCell>
        <mxCell id="ukeXJ8pDAbe5DNPSKjXT-47" value="" style="shape=waypoint;sketch=0;fillStyle=solid;size=6;pointerEvents=1;points=[];fillColor=none;resizable=0;rotatable=0;perimeter=centerPerimeter;snapToPoint=1;" vertex="1" parent="1">
          <mxGeometry x="130" y="810" width="20" height="20" as="geometry" />
        </mxCell>
        <mxCell id="ukeXJ8pDAbe5DNPSKjXT-49" value="" style="edgeStyle=segmentEdgeStyle;endArrow=classic;html=1;curved=0;rounded=0;endSize=8;startSize=8;elbow=vertical;exitX=0.465;exitY=0.981;exitDx=0;exitDy=0;exitPerimeter=0;" edge="1" parent="1">
          <mxGeometry width="50" height="50" relative="1" as="geometry">
            <mxPoint x="137.25" y="760" as="sourcePoint" />
            <mxPoint x="140" y="810" as="targetPoint" />
          </mxGeometry>
        </mxCell>
        <mxCell id="ukeXJ8pDAbe5DNPSKjXT-50" value="( Fin du processus )" style="text;strokeColor=none;align=center;fillColor=none;html=1;verticalAlign=middle;whiteSpace=wrap;rounded=0;" vertex="1" parent="1">
          <mxGeometry x="135" y="805" width="150" height="30" as="geometry" />
        </mxCell>
        <mxCell id="ukeXJ8pDAbe5DNPSKjXT-51" value="( Fin du processus )" style="text;strokeColor=none;align=center;fillColor=none;html=1;verticalAlign=middle;whiteSpace=wrap;rounded=0;" vertex="1" parent="1">
          <mxGeometry x="426" y="555" width="150" height="30" as="geometry" />
        </mxCell>
        <mxCell id="PRGf9OZDWZBrqJ-wH5AD-1" value="" style="edgeStyle=elbowEdgeStyle;elbow=horizontal;endArrow=classic;html=1;curved=0;rounded=0;endSize=8;startSize=8;entryX=0.75;entryY=1;entryDx=0;entryDy=0;exitX=0.5;exitY=1;exitDx=0;exitDy=0;" edge="1" parent="1" source="ukeXJ8pDAbe5DNPSKjXT-45">
          <mxGeometry width="50" height="50" relative="1" as="geometry">
            <mxPoint x="840" y="580" as="sourcePoint" />
            <mxPoint x="200" y="520" as="targetPoint" />
            <Array as="points">
              <mxPoint x="410" y="750" />
            </Array>
          </mxGeometry>
        </mxCell>
      </root>
    </mxGraphModel>
  </diagram>
</mxfile>
